<mxfile host="app.diagrams.net" agent="Mozilla/5.0 (Windows NT 10.0; Win64; x64) AppleWebKit/537.36 (KHTML, like Gecko) Chrome/130.0.0.0 Safari/537.36 Edg/130.0.0.0" version="24.7.17">
  <diagram name="PÃ¡gina-1" id="sX2INsLQYdRTUH52-1S9">
    <mxGraphModel dx="2964" dy="1927" grid="1" gridSize="10" guides="1" tooltips="1" connect="1" arrows="1" fold="1" page="1" pageScale="1" pageWidth="827" pageHeight="1169" math="0" shadow="0">
      <root>
        <mxCell id="0" />
        <mxCell id="1" parent="0" />
        <mxCell id="YER5WA7dIHrInvIyy_oo-10" style="edgeStyle=orthogonalEdgeStyle;rounded=0;orthogonalLoop=1;jettySize=auto;html=1;entryX=0.5;entryY=1;entryDx=0;entryDy=0;" edge="1" parent="1" source="YER5WA7dIHrInvIyy_oo-1" target="YER5WA7dIHrInvIyy_oo-6">
          <mxGeometry relative="1" as="geometry" />
        </mxCell>
        <mxCell id="YER5WA7dIHrInvIyy_oo-1" value="&lt;div&gt;&amp;lt;&amp;lt;abstract&amp;gt;&amp;gt;&lt;/div&gt;Vehicle" style="swimlane;fontStyle=1;align=center;verticalAlign=top;childLayout=stackLayout;horizontal=1;startSize=40;horizontalStack=0;resizeParent=1;resizeParentMax=0;resizeLast=0;collapsible=1;marginBottom=0;whiteSpace=wrap;html=1;" vertex="1" parent="1">
          <mxGeometry x="40" y="170" width="160" height="48" as="geometry" />
        </mxCell>
        <mxCell id="YER5WA7dIHrInvIyy_oo-3" value="" style="line;strokeWidth=1;fillColor=none;align=left;verticalAlign=middle;spacingTop=-1;spacingLeft=3;spacingRight=3;rotatable=0;labelPosition=right;points=[];portConstraint=eastwest;strokeColor=inherit;" vertex="1" parent="YER5WA7dIHrInvIyy_oo-1">
          <mxGeometry y="40" width="160" height="8" as="geometry" />
        </mxCell>
        <mxCell id="YER5WA7dIHrInvIyy_oo-6" value="VehicleController" style="swimlane;fontStyle=1;align=center;verticalAlign=top;childLayout=stackLayout;horizontal=1;startSize=26;horizontalStack=0;resizeParent=1;resizeParentMax=0;resizeLast=0;collapsible=1;marginBottom=0;whiteSpace=wrap;html=1;" vertex="1" parent="1">
          <mxGeometry x="40" y="90" width="160" height="34" as="geometry" />
        </mxCell>
        <mxCell id="YER5WA7dIHrInvIyy_oo-8" value="" style="line;strokeWidth=1;fillColor=none;align=left;verticalAlign=middle;spacingTop=-1;spacingLeft=3;spacingRight=3;rotatable=0;labelPosition=right;points=[];portConstraint=eastwest;strokeColor=inherit;" vertex="1" parent="YER5WA7dIHrInvIyy_oo-6">
          <mxGeometry y="26" width="160" height="8" as="geometry" />
        </mxCell>
        <mxCell id="YER5WA7dIHrInvIyy_oo-94" style="edgeStyle=orthogonalEdgeStyle;rounded=0;orthogonalLoop=1;jettySize=auto;html=1;entryX=0.5;entryY=1;entryDx=0;entryDy=0;endArrow=block;endFill=0;" edge="1" parent="1" source="YER5WA7dIHrInvIyy_oo-11" target="YER5WA7dIHrInvIyy_oo-1">
          <mxGeometry relative="1" as="geometry" />
        </mxCell>
        <mxCell id="YER5WA7dIHrInvIyy_oo-11" value="Taxi" style="swimlane;fontStyle=1;align=center;verticalAlign=top;childLayout=stackLayout;horizontal=1;startSize=26;horizontalStack=0;resizeParent=1;resizeParentMax=0;resizeLast=0;collapsible=1;marginBottom=0;whiteSpace=wrap;html=1;" vertex="1" parent="1">
          <mxGeometry x="40" y="422" width="160" height="34" as="geometry" />
        </mxCell>
        <mxCell id="YER5WA7dIHrInvIyy_oo-12" value="" style="line;strokeWidth=1;fillColor=none;align=left;verticalAlign=middle;spacingTop=-1;spacingLeft=3;spacingRight=3;rotatable=0;labelPosition=right;points=[];portConstraint=eastwest;strokeColor=inherit;" vertex="1" parent="YER5WA7dIHrInvIyy_oo-11">
          <mxGeometry y="26" width="160" height="8" as="geometry" />
        </mxCell>
        <mxCell id="YER5WA7dIHrInvIyy_oo-29" style="edgeStyle=orthogonalEdgeStyle;rounded=0;orthogonalLoop=1;jettySize=auto;html=1;entryX=0.116;entryY=0.389;entryDx=0;entryDy=0;entryPerimeter=0;" edge="1" parent="1" source="YER5WA7dIHrInvIyy_oo-13" target="YER5WA7dIHrInvIyy_oo-16">
          <mxGeometry relative="1" as="geometry">
            <Array as="points">
              <mxPoint x="589" y="287" />
            </Array>
          </mxGeometry>
        </mxCell>
        <mxCell id="YER5WA7dIHrInvIyy_oo-30" style="edgeStyle=orthogonalEdgeStyle;rounded=0;orthogonalLoop=1;jettySize=auto;html=1;entryX=0.5;entryY=1;entryDx=0;entryDy=0;endArrow=block;endFill=0;" edge="1" parent="1" source="YER5WA7dIHrInvIyy_oo-13" target="YER5WA7dIHrInvIyy_oo-1">
          <mxGeometry relative="1" as="geometry" />
        </mxCell>
        <mxCell id="YER5WA7dIHrInvIyy_oo-167" style="edgeStyle=orthogonalEdgeStyle;rounded=0;orthogonalLoop=1;jettySize=auto;html=1;exitX=0.75;exitY=1;exitDx=0;exitDy=0;entryX=0.5;entryY=0;entryDx=0;entryDy=0;dashed=1;dashPattern=8 8;endArrow=open;endFill=0;" edge="1" parent="1" source="YER5WA7dIHrInvIyy_oo-13" target="YER5WA7dIHrInvIyy_oo-165">
          <mxGeometry relative="1" as="geometry">
            <Array as="points">
              <mxPoint x="540" y="360" />
              <mxPoint x="520" y="360" />
            </Array>
          </mxGeometry>
        </mxCell>
        <mxCell id="YER5WA7dIHrInvIyy_oo-13" value="PoliceCar" style="swimlane;fontStyle=1;align=center;verticalAlign=top;childLayout=stackLayout;horizontal=1;startSize=26;horizontalStack=0;resizeParent=1;resizeParentMax=0;resizeLast=0;collapsible=1;marginBottom=0;whiteSpace=wrap;html=1;" vertex="1" parent="1">
          <mxGeometry x="420" y="270" width="160" height="34" as="geometry" />
        </mxCell>
        <mxCell id="YER5WA7dIHrInvIyy_oo-14" value="" style="line;strokeWidth=1;fillColor=none;align=left;verticalAlign=middle;spacingTop=-1;spacingLeft=3;spacingRight=3;rotatable=0;labelPosition=right;points=[];portConstraint=eastwest;strokeColor=inherit;" vertex="1" parent="YER5WA7dIHrInvIyy_oo-13">
          <mxGeometry y="26" width="160" height="8" as="geometry" />
        </mxCell>
        <mxCell id="YER5WA7dIHrInvIyy_oo-25" style="edgeStyle=orthogonalEdgeStyle;rounded=0;orthogonalLoop=1;jettySize=auto;html=1;entryX=0.5;entryY=1;entryDx=0;entryDy=0;endArrow=block;endFill=0;" edge="1" parent="1" source="YER5WA7dIHrInvIyy_oo-15" target="YER5WA7dIHrInvIyy_oo-21">
          <mxGeometry relative="1" as="geometry" />
        </mxCell>
        <mxCell id="YER5WA7dIHrInvIyy_oo-15" value="Obstacle" style="swimlane;fontStyle=1;align=center;verticalAlign=top;childLayout=stackLayout;horizontal=1;startSize=26;horizontalStack=0;resizeParent=1;resizeParentMax=0;resizeLast=0;collapsible=1;marginBottom=0;whiteSpace=wrap;html=1;" vertex="1" parent="1">
          <mxGeometry x="570" y="156" width="160" height="34" as="geometry" />
        </mxCell>
        <mxCell id="YER5WA7dIHrInvIyy_oo-16" value="" style="line;strokeWidth=1;fillColor=none;align=left;verticalAlign=middle;spacingTop=-1;spacingLeft=3;spacingRight=3;rotatable=0;labelPosition=right;points=[];portConstraint=eastwest;strokeColor=inherit;" vertex="1" parent="YER5WA7dIHrInvIyy_oo-15">
          <mxGeometry y="26" width="160" height="8" as="geometry" />
        </mxCell>
        <mxCell id="YER5WA7dIHrInvIyy_oo-27" style="edgeStyle=orthogonalEdgeStyle;rounded=0;orthogonalLoop=1;jettySize=auto;html=1;entryX=0.25;entryY=1;entryDx=0;entryDy=0;endArrow=block;endFill=0;" edge="1" parent="1" source="YER5WA7dIHrInvIyy_oo-17" target="YER5WA7dIHrInvIyy_oo-15">
          <mxGeometry relative="1" as="geometry" />
        </mxCell>
        <mxCell id="YER5WA7dIHrInvIyy_oo-17" value="Fence" style="swimlane;fontStyle=1;align=center;verticalAlign=top;childLayout=stackLayout;horizontal=1;startSize=26;horizontalStack=0;resizeParent=1;resizeParentMax=0;resizeLast=0;collapsible=1;marginBottom=0;whiteSpace=wrap;html=1;" vertex="1" parent="1">
          <mxGeometry x="690" y="236" width="160" height="34" as="geometry" />
        </mxCell>
        <mxCell id="YER5WA7dIHrInvIyy_oo-18" value="" style="line;strokeWidth=1;fillColor=none;align=left;verticalAlign=middle;spacingTop=-1;spacingLeft=3;spacingRight=3;rotatable=0;labelPosition=right;points=[];portConstraint=eastwest;strokeColor=inherit;" vertex="1" parent="YER5WA7dIHrInvIyy_oo-17">
          <mxGeometry y="26" width="160" height="8" as="geometry" />
        </mxCell>
        <mxCell id="YER5WA7dIHrInvIyy_oo-28" style="edgeStyle=orthogonalEdgeStyle;rounded=0;orthogonalLoop=1;jettySize=auto;html=1;endArrow=block;endFill=0;" edge="1" parent="1" source="YER5WA7dIHrInvIyy_oo-19">
          <mxGeometry relative="1" as="geometry">
            <mxPoint x="610" y="196" as="targetPoint" />
          </mxGeometry>
        </mxCell>
        <mxCell id="YER5WA7dIHrInvIyy_oo-19" value="Debuff" style="swimlane;fontStyle=1;align=center;verticalAlign=top;childLayout=stackLayout;horizontal=1;startSize=26;horizontalStack=0;resizeParent=1;resizeParentMax=0;resizeLast=0;collapsible=1;marginBottom=0;whiteSpace=wrap;html=1;" vertex="1" parent="1">
          <mxGeometry x="690" y="296" width="160" height="34" as="geometry" />
        </mxCell>
        <mxCell id="YER5WA7dIHrInvIyy_oo-20" value="" style="line;strokeWidth=1;fillColor=none;align=left;verticalAlign=middle;spacingTop=-1;spacingLeft=3;spacingRight=3;rotatable=0;labelPosition=right;points=[];portConstraint=eastwest;strokeColor=inherit;" vertex="1" parent="YER5WA7dIHrInvIyy_oo-19">
          <mxGeometry y="26" width="160" height="8" as="geometry" />
        </mxCell>
        <mxCell id="YER5WA7dIHrInvIyy_oo-21" value="IntercativeObject" style="swimlane;fontStyle=1;align=center;verticalAlign=top;childLayout=stackLayout;horizontal=1;startSize=26;horizontalStack=0;resizeParent=1;resizeParentMax=0;resizeLast=0;collapsible=1;marginBottom=0;whiteSpace=wrap;html=1;" vertex="1" parent="1">
          <mxGeometry x="700" y="76" width="160" height="34" as="geometry" />
        </mxCell>
        <mxCell id="YER5WA7dIHrInvIyy_oo-22" value="" style="line;strokeWidth=1;fillColor=none;align=left;verticalAlign=middle;spacingTop=-1;spacingLeft=3;spacingRight=3;rotatable=0;labelPosition=right;points=[];portConstraint=eastwest;strokeColor=inherit;" vertex="1" parent="YER5WA7dIHrInvIyy_oo-21">
          <mxGeometry y="26" width="160" height="8" as="geometry" />
        </mxCell>
        <mxCell id="YER5WA7dIHrInvIyy_oo-26" style="edgeStyle=orthogonalEdgeStyle;rounded=0;orthogonalLoop=1;jettySize=auto;html=1;entryX=0.5;entryY=1;entryDx=0;entryDy=0;endArrow=block;endFill=0;" edge="1" parent="1" source="YER5WA7dIHrInvIyy_oo-23" target="YER5WA7dIHrInvIyy_oo-21">
          <mxGeometry relative="1" as="geometry" />
        </mxCell>
        <mxCell id="YER5WA7dIHrInvIyy_oo-23" value="Buff" style="swimlane;fontStyle=1;align=center;verticalAlign=top;childLayout=stackLayout;horizontal=1;startSize=26;horizontalStack=0;resizeParent=1;resizeParentMax=0;resizeLast=0;collapsible=1;marginBottom=0;whiteSpace=wrap;html=1;" vertex="1" parent="1">
          <mxGeometry x="830" y="156" width="160" height="34" as="geometry" />
        </mxCell>
        <mxCell id="YER5WA7dIHrInvIyy_oo-24" value="" style="line;strokeWidth=1;fillColor=none;align=left;verticalAlign=middle;spacingTop=-1;spacingLeft=3;spacingRight=3;rotatable=0;labelPosition=right;points=[];portConstraint=eastwest;strokeColor=inherit;" vertex="1" parent="YER5WA7dIHrInvIyy_oo-23">
          <mxGeometry y="26" width="160" height="8" as="geometry" />
        </mxCell>
        <mxCell id="YER5WA7dIHrInvIyy_oo-34" style="edgeStyle=orthogonalEdgeStyle;rounded=0;orthogonalLoop=1;jettySize=auto;html=1;entryX=0.25;entryY=1;entryDx=0;entryDy=0;endArrow=block;endFill=0;" edge="1" parent="1" source="YER5WA7dIHrInvIyy_oo-32" target="YER5WA7dIHrInvIyy_oo-15">
          <mxGeometry relative="1" as="geometry">
            <Array as="points">
              <mxPoint x="610" y="393" />
            </Array>
          </mxGeometry>
        </mxCell>
        <mxCell id="YER5WA7dIHrInvIyy_oo-166" style="edgeStyle=orthogonalEdgeStyle;rounded=0;orthogonalLoop=1;jettySize=auto;html=1;entryX=1;entryY=0.5;entryDx=0;entryDy=0;endArrow=block;endFill=0;dashed=1;dashPattern=8 8;" edge="1" parent="1" source="YER5WA7dIHrInvIyy_oo-32" target="YER5WA7dIHrInvIyy_oo-165">
          <mxGeometry relative="1" as="geometry">
            <Array as="points">
              <mxPoint x="720" y="465" />
            </Array>
          </mxGeometry>
        </mxCell>
        <mxCell id="YER5WA7dIHrInvIyy_oo-32" value="SpeedRadar" style="swimlane;fontStyle=1;align=center;verticalAlign=top;childLayout=stackLayout;horizontal=1;startSize=26;horizontalStack=0;resizeParent=1;resizeParentMax=0;resizeLast=0;collapsible=1;marginBottom=0;whiteSpace=wrap;html=1;" vertex="1" parent="1">
          <mxGeometry x="640" y="376" width="160" height="34" as="geometry" />
        </mxCell>
        <mxCell id="YER5WA7dIHrInvIyy_oo-33" value="" style="line;strokeWidth=1;fillColor=none;align=left;verticalAlign=middle;spacingTop=-1;spacingLeft=3;spacingRight=3;rotatable=0;labelPosition=right;points=[];portConstraint=eastwest;strokeColor=inherit;" vertex="1" parent="YER5WA7dIHrInvIyy_oo-32">
          <mxGeometry y="26" width="160" height="8" as="geometry" />
        </mxCell>
        <mxCell id="YER5WA7dIHrInvIyy_oo-39" value="IntercativeObjectFactory" style="swimlane;fontStyle=1;align=center;verticalAlign=top;childLayout=stackLayout;horizontal=1;startSize=26;horizontalStack=0;resizeParent=1;resizeParentMax=0;resizeLast=0;collapsible=1;marginBottom=0;whiteSpace=wrap;html=1;" vertex="1" parent="1">
          <mxGeometry x="1170" y="56" width="160" height="34" as="geometry" />
        </mxCell>
        <mxCell id="YER5WA7dIHrInvIyy_oo-40" value="" style="line;strokeWidth=1;fillColor=none;align=left;verticalAlign=middle;spacingTop=-1;spacingLeft=3;spacingRight=3;rotatable=0;labelPosition=right;points=[];portConstraint=eastwest;strokeColor=inherit;" vertex="1" parent="YER5WA7dIHrInvIyy_oo-39">
          <mxGeometry y="26" width="160" height="8" as="geometry" />
        </mxCell>
        <mxCell id="YER5WA7dIHrInvIyy_oo-41" style="edgeStyle=orthogonalEdgeStyle;rounded=0;orthogonalLoop=1;jettySize=auto;html=1;entryX=0.5;entryY=1;entryDx=0;entryDy=0;endArrow=block;endFill=0;" edge="1" parent="1" source="YER5WA7dIHrInvIyy_oo-42" target="YER5WA7dIHrInvIyy_oo-39">
          <mxGeometry relative="1" as="geometry">
            <mxPoint x="1140" y="106" as="targetPoint" />
          </mxGeometry>
        </mxCell>
        <mxCell id="YER5WA7dIHrInvIyy_oo-63" style="edgeStyle=orthogonalEdgeStyle;rounded=0;orthogonalLoop=1;jettySize=auto;html=1;entryX=1;entryY=0.5;entryDx=0;entryDy=0;endArrow=diamond;endFill=1;" edge="1" parent="1" source="YER5WA7dIHrInvIyy_oo-42" target="YER5WA7dIHrInvIyy_oo-15">
          <mxGeometry relative="1" as="geometry" />
        </mxCell>
        <mxCell id="YER5WA7dIHrInvIyy_oo-42" value="ObstacleFactory" style="swimlane;fontStyle=1;align=center;verticalAlign=top;childLayout=stackLayout;horizontal=1;startSize=26;horizontalStack=0;resizeParent=1;resizeParentMax=0;resizeLast=0;collapsible=1;marginBottom=0;whiteSpace=wrap;html=1;" vertex="1" parent="1">
          <mxGeometry x="1010" y="200" width="160" height="34" as="geometry" />
        </mxCell>
        <mxCell id="YER5WA7dIHrInvIyy_oo-43" value="" style="line;strokeWidth=1;fillColor=none;align=left;verticalAlign=middle;spacingTop=-1;spacingLeft=3;spacingRight=3;rotatable=0;labelPosition=right;points=[];portConstraint=eastwest;strokeColor=inherit;" vertex="1" parent="YER5WA7dIHrInvIyy_oo-42">
          <mxGeometry y="26" width="160" height="8" as="geometry" />
        </mxCell>
        <mxCell id="YER5WA7dIHrInvIyy_oo-57" style="edgeStyle=orthogonalEdgeStyle;rounded=0;orthogonalLoop=1;jettySize=auto;html=1;entryX=0.5;entryY=1;entryDx=0;entryDy=0;endArrow=block;endFill=0;" edge="1" parent="1" source="YER5WA7dIHrInvIyy_oo-45" target="YER5WA7dIHrInvIyy_oo-42">
          <mxGeometry relative="1" as="geometry">
            <Array as="points">
              <mxPoint x="1090" y="273" />
            </Array>
          </mxGeometry>
        </mxCell>
        <mxCell id="YER5WA7dIHrInvIyy_oo-45" value="FenceFactory" style="swimlane;fontStyle=1;align=center;verticalAlign=top;childLayout=stackLayout;horizontal=1;startSize=26;horizontalStack=0;resizeParent=1;resizeParentMax=0;resizeLast=0;collapsible=1;marginBottom=0;whiteSpace=wrap;html=1;" vertex="1" parent="1">
          <mxGeometry x="1120" y="256" width="160" height="34" as="geometry" />
        </mxCell>
        <mxCell id="YER5WA7dIHrInvIyy_oo-46" value="" style="line;strokeWidth=1;fillColor=none;align=left;verticalAlign=middle;spacingTop=-1;spacingLeft=3;spacingRight=3;rotatable=0;labelPosition=right;points=[];portConstraint=eastwest;strokeColor=inherit;" vertex="1" parent="YER5WA7dIHrInvIyy_oo-45">
          <mxGeometry y="26" width="160" height="8" as="geometry" />
        </mxCell>
        <mxCell id="YER5WA7dIHrInvIyy_oo-65" style="edgeStyle=orthogonalEdgeStyle;rounded=0;orthogonalLoop=1;jettySize=auto;html=1;entryX=1;entryY=0.5;entryDx=0;entryDy=0;endArrow=diamond;endFill=1;" edge="1" parent="1" source="YER5WA7dIHrInvIyy_oo-48" target="YER5WA7dIHrInvIyy_oo-19">
          <mxGeometry relative="1" as="geometry" />
        </mxCell>
        <mxCell id="YER5WA7dIHrInvIyy_oo-48" value="DebuffFactory" style="swimlane;fontStyle=1;align=center;verticalAlign=top;childLayout=stackLayout;horizontal=1;startSize=26;horizontalStack=0;resizeParent=1;resizeParentMax=0;resizeLast=0;collapsible=1;marginBottom=0;whiteSpace=wrap;html=1;" vertex="1" parent="1">
          <mxGeometry x="1120" y="330" width="160" height="34" as="geometry" />
        </mxCell>
        <mxCell id="YER5WA7dIHrInvIyy_oo-49" value="" style="line;strokeWidth=1;fillColor=none;align=left;verticalAlign=middle;spacingTop=-1;spacingLeft=3;spacingRight=3;rotatable=0;labelPosition=right;points=[];portConstraint=eastwest;strokeColor=inherit;" vertex="1" parent="YER5WA7dIHrInvIyy_oo-48">
          <mxGeometry y="26" width="160" height="8" as="geometry" />
        </mxCell>
        <mxCell id="YER5WA7dIHrInvIyy_oo-50" style="edgeStyle=orthogonalEdgeStyle;rounded=0;orthogonalLoop=1;jettySize=auto;html=1;entryX=0.516;entryY=1.036;entryDx=0;entryDy=0;entryPerimeter=0;endArrow=block;endFill=0;" edge="1" parent="1" source="YER5WA7dIHrInvIyy_oo-51" target="YER5WA7dIHrInvIyy_oo-40">
          <mxGeometry relative="1" as="geometry">
            <mxPoint x="1140" y="136" as="targetPoint" />
          </mxGeometry>
        </mxCell>
        <mxCell id="YER5WA7dIHrInvIyy_oo-67" style="edgeStyle=orthogonalEdgeStyle;rounded=0;orthogonalLoop=1;jettySize=auto;html=1;entryX=1;entryY=0.25;entryDx=0;entryDy=0;endArrow=diamond;endFill=1;" edge="1" parent="1" source="YER5WA7dIHrInvIyy_oo-51" target="YER5WA7dIHrInvIyy_oo-23">
          <mxGeometry relative="1" as="geometry" />
        </mxCell>
        <mxCell id="YER5WA7dIHrInvIyy_oo-51" value="BuffFactory" style="swimlane;fontStyle=1;align=center;verticalAlign=top;childLayout=stackLayout;horizontal=1;startSize=26;horizontalStack=0;resizeParent=1;resizeParentMax=0;resizeLast=0;collapsible=1;marginBottom=0;whiteSpace=wrap;html=1;" vertex="1" parent="1">
          <mxGeometry x="1250" y="166" width="160" height="34" as="geometry" />
        </mxCell>
        <mxCell id="YER5WA7dIHrInvIyy_oo-52" value="" style="line;strokeWidth=1;fillColor=none;align=left;verticalAlign=middle;spacingTop=-1;spacingLeft=3;spacingRight=3;rotatable=0;labelPosition=right;points=[];portConstraint=eastwest;strokeColor=inherit;" vertex="1" parent="YER5WA7dIHrInvIyy_oo-51">
          <mxGeometry y="26" width="160" height="8" as="geometry" />
        </mxCell>
        <mxCell id="YER5WA7dIHrInvIyy_oo-59" style="edgeStyle=orthogonalEdgeStyle;rounded=0;orthogonalLoop=1;jettySize=auto;html=1;endArrow=block;endFill=0;" edge="1" parent="1" source="YER5WA7dIHrInvIyy_oo-54">
          <mxGeometry relative="1" as="geometry">
            <mxPoint x="1090" y="226" as="targetPoint" />
          </mxGeometry>
        </mxCell>
        <mxCell id="YER5WA7dIHrInvIyy_oo-66" style="edgeStyle=orthogonalEdgeStyle;rounded=0;orthogonalLoop=1;jettySize=auto;html=1;entryX=1;entryY=0.5;entryDx=0;entryDy=0;endArrow=diamond;endFill=1;" edge="1" parent="1" source="YER5WA7dIHrInvIyy_oo-54" target="YER5WA7dIHrInvIyy_oo-32">
          <mxGeometry relative="1" as="geometry" />
        </mxCell>
        <mxCell id="YER5WA7dIHrInvIyy_oo-54" value="SpeedRadarFactory" style="swimlane;fontStyle=1;align=center;verticalAlign=top;childLayout=stackLayout;horizontal=1;startSize=26;horizontalStack=0;resizeParent=1;resizeParentMax=0;resizeLast=0;collapsible=1;marginBottom=0;whiteSpace=wrap;html=1;" vertex="1" parent="1">
          <mxGeometry x="1120" y="396" width="160" height="34" as="geometry" />
        </mxCell>
        <mxCell id="YER5WA7dIHrInvIyy_oo-55" value="" style="line;strokeWidth=1;fillColor=none;align=left;verticalAlign=middle;spacingTop=-1;spacingLeft=3;spacingRight=3;rotatable=0;labelPosition=right;points=[];portConstraint=eastwest;strokeColor=inherit;" vertex="1" parent="YER5WA7dIHrInvIyy_oo-54">
          <mxGeometry y="26" width="160" height="8" as="geometry" />
        </mxCell>
        <mxCell id="YER5WA7dIHrInvIyy_oo-58" style="edgeStyle=orthogonalEdgeStyle;rounded=0;orthogonalLoop=1;jettySize=auto;html=1;entryX=0.5;entryY=1;entryDx=0;entryDy=0;endArrow=block;endFill=0;" edge="1" parent="1" source="YER5WA7dIHrInvIyy_oo-49" target="YER5WA7dIHrInvIyy_oo-42">
          <mxGeometry relative="1" as="geometry" />
        </mxCell>
        <mxCell id="YER5WA7dIHrInvIyy_oo-61" value="PoliceCarCreator" style="swimlane;fontStyle=1;align=center;verticalAlign=top;childLayout=stackLayout;horizontal=1;startSize=26;horizontalStack=0;resizeParent=1;resizeParentMax=0;resizeLast=0;collapsible=1;marginBottom=0;whiteSpace=wrap;html=1;" vertex="1" parent="1">
          <mxGeometry x="890" y="456" width="160" height="34" as="geometry" />
        </mxCell>
        <mxCell id="YER5WA7dIHrInvIyy_oo-62" value="" style="line;strokeWidth=1;fillColor=none;align=left;verticalAlign=middle;spacingTop=-1;spacingLeft=3;spacingRight=3;rotatable=0;labelPosition=right;points=[];portConstraint=eastwest;strokeColor=inherit;" vertex="1" parent="YER5WA7dIHrInvIyy_oo-61">
          <mxGeometry y="26" width="160" height="8" as="geometry" />
        </mxCell>
        <mxCell id="YER5WA7dIHrInvIyy_oo-64" style="edgeStyle=orthogonalEdgeStyle;rounded=0;orthogonalLoop=1;jettySize=auto;html=1;entryX=1;entryY=0.5;entryDx=0;entryDy=0;endArrow=diamond;endFill=1;" edge="1" parent="1" source="YER5WA7dIHrInvIyy_oo-46" target="YER5WA7dIHrInvIyy_oo-17">
          <mxGeometry relative="1" as="geometry" />
        </mxCell>
        <mxCell id="YER5WA7dIHrInvIyy_oo-68" style="edgeStyle=orthogonalEdgeStyle;rounded=0;orthogonalLoop=1;jettySize=auto;html=1;entryX=1;entryY=0.5;entryDx=0;entryDy=0;endArrow=diamond;endFill=1;" edge="1" parent="1" source="YER5WA7dIHrInvIyy_oo-40" target="YER5WA7dIHrInvIyy_oo-21">
          <mxGeometry relative="1" as="geometry" />
        </mxCell>
        <mxCell id="YER5WA7dIHrInvIyy_oo-69" value="Scene" style="swimlane;fontStyle=1;align=center;verticalAlign=top;childLayout=stackLayout;horizontal=1;startSize=26;horizontalStack=0;resizeParent=1;resizeParentMax=0;resizeLast=0;collapsible=1;marginBottom=0;whiteSpace=wrap;html=1;" vertex="1" parent="1">
          <mxGeometry x="750" y="-34" width="160" height="34" as="geometry" />
        </mxCell>
        <mxCell id="YER5WA7dIHrInvIyy_oo-70" value="" style="line;strokeWidth=1;fillColor=none;align=left;verticalAlign=middle;spacingTop=-1;spacingLeft=3;spacingRight=3;rotatable=0;labelPosition=right;points=[];portConstraint=eastwest;strokeColor=inherit;" vertex="1" parent="YER5WA7dIHrInvIyy_oo-69">
          <mxGeometry y="26" width="160" height="8" as="geometry" />
        </mxCell>
        <mxCell id="YER5WA7dIHrInvIyy_oo-71" style="edgeStyle=orthogonalEdgeStyle;rounded=0;orthogonalLoop=1;jettySize=auto;html=1;entryX=0.5;entryY=1;entryDx=0;entryDy=0;" edge="1" parent="1" source="YER5WA7dIHrInvIyy_oo-72" target="YER5WA7dIHrInvIyy_oo-74">
          <mxGeometry relative="1" as="geometry" />
        </mxCell>
        <mxCell id="YER5WA7dIHrInvIyy_oo-72" value="&lt;div&gt;&amp;lt;&amp;lt;abstract&amp;gt;&amp;gt;&lt;/div&gt;Person" style="swimlane;fontStyle=1;align=center;verticalAlign=top;childLayout=stackLayout;horizontal=1;startSize=40;horizontalStack=0;resizeParent=1;resizeParentMax=0;resizeLast=0;collapsible=1;marginBottom=0;whiteSpace=wrap;html=1;" vertex="1" parent="1">
          <mxGeometry x="-220" y="130" width="160" height="48" as="geometry" />
        </mxCell>
        <mxCell id="YER5WA7dIHrInvIyy_oo-73" value="" style="line;strokeWidth=1;fillColor=none;align=left;verticalAlign=middle;spacingTop=-1;spacingLeft=3;spacingRight=3;rotatable=0;labelPosition=right;points=[];portConstraint=eastwest;strokeColor=inherit;" vertex="1" parent="YER5WA7dIHrInvIyy_oo-72">
          <mxGeometry y="40" width="160" height="8" as="geometry" />
        </mxCell>
        <mxCell id="YER5WA7dIHrInvIyy_oo-74" value="PersonController" style="swimlane;fontStyle=1;align=center;verticalAlign=top;childLayout=stackLayout;horizontal=1;startSize=26;horizontalStack=0;resizeParent=1;resizeParentMax=0;resizeLast=0;collapsible=1;marginBottom=0;whiteSpace=wrap;html=1;" vertex="1" parent="1">
          <mxGeometry x="-220" y="40" width="160" height="34" as="geometry" />
        </mxCell>
        <mxCell id="YER5WA7dIHrInvIyy_oo-75" value="" style="line;strokeWidth=1;fillColor=none;align=left;verticalAlign=middle;spacingTop=-1;spacingLeft=3;spacingRight=3;rotatable=0;labelPosition=right;points=[];portConstraint=eastwest;strokeColor=inherit;" vertex="1" parent="YER5WA7dIHrInvIyy_oo-74">
          <mxGeometry y="26" width="160" height="8" as="geometry" />
        </mxCell>
        <mxCell id="YER5WA7dIHrInvIyy_oo-77" style="edgeStyle=orthogonalEdgeStyle;rounded=0;orthogonalLoop=1;jettySize=auto;html=1;entryX=0.5;entryY=1;entryDx=0;entryDy=0;endArrow=block;endFill=0;" edge="1" parent="1" source="YER5WA7dIHrInvIyy_oo-78" target="YER5WA7dIHrInvIyy_oo-72">
          <mxGeometry relative="1" as="geometry">
            <Array as="points">
              <mxPoint x="-710" y="210" />
              <mxPoint x="-140" y="210" />
            </Array>
          </mxGeometry>
        </mxCell>
        <mxCell id="YER5WA7dIHrInvIyy_oo-91" style="edgeStyle=orthogonalEdgeStyle;rounded=0;orthogonalLoop=1;jettySize=auto;html=1;entryX=0.5;entryY=1;entryDx=0;entryDy=0;dashed=1;dashPattern=8 8;endArrow=open;endFill=0;" edge="1" parent="1" source="YER5WA7dIHrInvIyy_oo-78" target="YER5WA7dIHrInvIyy_oo-13">
          <mxGeometry relative="1" as="geometry">
            <Array as="points">
              <mxPoint x="-710" y="380" />
              <mxPoint x="500" y="380" />
            </Array>
          </mxGeometry>
        </mxCell>
        <mxCell id="YER5WA7dIHrInvIyy_oo-78" value="PoliceOfficer" style="swimlane;fontStyle=1;align=center;verticalAlign=top;childLayout=stackLayout;horizontal=1;startSize=26;horizontalStack=0;resizeParent=1;resizeParentMax=0;resizeLast=0;collapsible=1;marginBottom=0;whiteSpace=wrap;html=1;" vertex="1" parent="1">
          <mxGeometry x="-790" y="290" width="160" height="34" as="geometry" />
        </mxCell>
        <mxCell id="YER5WA7dIHrInvIyy_oo-79" value="" style="line;strokeWidth=1;fillColor=none;align=left;verticalAlign=middle;spacingTop=-1;spacingLeft=3;spacingRight=3;rotatable=0;labelPosition=right;points=[];portConstraint=eastwest;strokeColor=inherit;" vertex="1" parent="YER5WA7dIHrInvIyy_oo-78">
          <mxGeometry y="26" width="160" height="8" as="geometry" />
        </mxCell>
        <mxCell id="YER5WA7dIHrInvIyy_oo-86" style="edgeStyle=orthogonalEdgeStyle;rounded=0;orthogonalLoop=1;jettySize=auto;html=1;entryX=0.5;entryY=1;entryDx=0;entryDy=0;endArrow=block;endFill=0;" edge="1" parent="1" source="YER5WA7dIHrInvIyy_oo-80" target="YER5WA7dIHrInvIyy_oo-72">
          <mxGeometry relative="1" as="geometry">
            <Array as="points">
              <mxPoint x="-510" y="210" />
              <mxPoint x="-140" y="210" />
            </Array>
          </mxGeometry>
        </mxCell>
        <mxCell id="YER5WA7dIHrInvIyy_oo-80" value="TaxiDriver" style="swimlane;fontStyle=1;align=center;verticalAlign=top;childLayout=stackLayout;horizontal=1;startSize=26;horizontalStack=0;resizeParent=1;resizeParentMax=0;resizeLast=0;collapsible=1;marginBottom=0;whiteSpace=wrap;html=1;" vertex="1" parent="1">
          <mxGeometry x="-590" y="290" width="160" height="34" as="geometry" />
        </mxCell>
        <mxCell id="YER5WA7dIHrInvIyy_oo-81" value="" style="line;strokeWidth=1;fillColor=none;align=left;verticalAlign=middle;spacingTop=-1;spacingLeft=3;spacingRight=3;rotatable=0;labelPosition=right;points=[];portConstraint=eastwest;strokeColor=inherit;" vertex="1" parent="YER5WA7dIHrInvIyy_oo-80">
          <mxGeometry y="26" width="160" height="8" as="geometry" />
        </mxCell>
        <mxCell id="YER5WA7dIHrInvIyy_oo-87" style="edgeStyle=orthogonalEdgeStyle;rounded=0;orthogonalLoop=1;jettySize=auto;html=1;entryX=0.5;entryY=1;entryDx=0;entryDy=0;endArrow=block;endFill=0;" edge="1" parent="1" source="YER5WA7dIHrInvIyy_oo-82" target="YER5WA7dIHrInvIyy_oo-72">
          <mxGeometry relative="1" as="geometry">
            <mxPoint x="-160" y="210" as="targetPoint" />
            <Array as="points">
              <mxPoint x="-310" y="210" />
              <mxPoint x="-140" y="210" />
            </Array>
          </mxGeometry>
        </mxCell>
        <mxCell id="YER5WA7dIHrInvIyy_oo-82" value="Citizen" style="swimlane;fontStyle=1;align=center;verticalAlign=top;childLayout=stackLayout;horizontal=1;startSize=26;horizontalStack=0;resizeParent=1;resizeParentMax=0;resizeLast=0;collapsible=1;marginBottom=0;whiteSpace=wrap;html=1;" vertex="1" parent="1">
          <mxGeometry x="-390" y="290" width="160" height="34" as="geometry" />
        </mxCell>
        <mxCell id="YER5WA7dIHrInvIyy_oo-83" value="" style="line;strokeWidth=1;fillColor=none;align=left;verticalAlign=middle;spacingTop=-1;spacingLeft=3;spacingRight=3;rotatable=0;labelPosition=right;points=[];portConstraint=eastwest;strokeColor=inherit;" vertex="1" parent="YER5WA7dIHrInvIyy_oo-82">
          <mxGeometry y="26" width="160" height="8" as="geometry" />
        </mxCell>
        <mxCell id="YER5WA7dIHrInvIyy_oo-159" style="edgeStyle=orthogonalEdgeStyle;rounded=0;orthogonalLoop=1;jettySize=auto;html=1;entryX=0.5;entryY=1;entryDx=0;entryDy=0;endArrow=block;endFill=0;" edge="1" parent="1" source="YER5WA7dIHrInvIyy_oo-84" target="YER5WA7dIHrInvIyy_oo-72">
          <mxGeometry relative="1" as="geometry">
            <Array as="points">
              <mxPoint x="-110" y="210" />
              <mxPoint x="-140" y="210" />
            </Array>
          </mxGeometry>
        </mxCell>
        <mxCell id="YER5WA7dIHrInvIyy_oo-84" value="Passanger&lt;div&gt;&lt;br&gt;&lt;/div&gt;" style="swimlane;fontStyle=1;align=center;verticalAlign=top;childLayout=stackLayout;horizontal=1;startSize=26;horizontalStack=0;resizeParent=1;resizeParentMax=0;resizeLast=0;collapsible=1;marginBottom=0;whiteSpace=wrap;html=1;" vertex="1" parent="1">
          <mxGeometry x="-190.06" y="290" width="160" height="34" as="geometry" />
        </mxCell>
        <mxCell id="YER5WA7dIHrInvIyy_oo-85" value="" style="line;strokeWidth=1;fillColor=none;align=left;verticalAlign=middle;spacingTop=-1;spacingLeft=3;spacingRight=3;rotatable=0;labelPosition=right;points=[];portConstraint=eastwest;strokeColor=inherit;" vertex="1" parent="YER5WA7dIHrInvIyy_oo-84">
          <mxGeometry y="26" width="160" height="8" as="geometry" />
        </mxCell>
        <mxCell id="YER5WA7dIHrInvIyy_oo-88" style="edgeStyle=orthogonalEdgeStyle;rounded=0;orthogonalLoop=1;jettySize=auto;html=1;entryX=0.538;entryY=0.982;entryDx=0;entryDy=0;entryPerimeter=0;dashed=1;dashPattern=8 8;endArrow=open;endFill=0;" edge="1" parent="1" source="YER5WA7dIHrInvIyy_oo-80" target="YER5WA7dIHrInvIyy_oo-12">
          <mxGeometry relative="1" as="geometry">
            <Array as="points">
              <mxPoint x="-510" y="490" />
              <mxPoint x="126" y="490" />
            </Array>
          </mxGeometry>
        </mxCell>
        <mxCell id="YER5WA7dIHrInvIyy_oo-89" value="&amp;lt;&amp;lt;drive&amp;gt;&amp;gt;" style="text;html=1;align=center;verticalAlign=middle;resizable=0;points=[];autosize=1;strokeColor=none;fillColor=none;" vertex="1" parent="1">
          <mxGeometry x="-425" y="348" width="80" height="30" as="geometry" />
        </mxCell>
        <mxCell id="YER5WA7dIHrInvIyy_oo-90" value="&amp;lt;&amp;lt;drive&amp;gt;&amp;gt;" style="text;html=1;align=center;verticalAlign=middle;resizable=0;points=[];autosize=1;strokeColor=none;fillColor=none;" vertex="1" parent="1">
          <mxGeometry x="-465" y="460" width="80" height="30" as="geometry" />
        </mxCell>
        <mxCell id="YER5WA7dIHrInvIyy_oo-98" value="&lt;font style=&quot;font-size: 16px;&quot;&gt;Scene layer&lt;/font&gt;" style="shape=umlFrame;whiteSpace=wrap;html=1;pointerEvents=0;width=170;height=40;" vertex="1" parent="1">
          <mxGeometry x="370" y="-80" width="1150" height="650" as="geometry" />
        </mxCell>
        <mxCell id="YER5WA7dIHrInvIyy_oo-99" value="&lt;font style=&quot;font-size: 16px;&quot;&gt;Agent Layer&lt;/font&gt;" style="shape=umlFrame;whiteSpace=wrap;html=1;pointerEvents=0;width=170;height=50;" vertex="1" parent="1">
          <mxGeometry x="-890" width="1180" height="520" as="geometry" />
        </mxCell>
        <mxCell id="YER5WA7dIHrInvIyy_oo-111" style="edgeStyle=orthogonalEdgeStyle;rounded=0;orthogonalLoop=1;jettySize=auto;html=1;entryX=0.5;entryY=1;entryDx=0;entryDy=0;" edge="1" parent="1" source="YER5WA7dIHrInvIyy_oo-104" target="YER5WA7dIHrInvIyy_oo-108">
          <mxGeometry relative="1" as="geometry" />
        </mxCell>
        <mxCell id="YER5WA7dIHrInvIyy_oo-112" style="edgeStyle=orthogonalEdgeStyle;rounded=0;orthogonalLoop=1;jettySize=auto;html=1;entryX=0.5;entryY=0;entryDx=0;entryDy=0;" edge="1" parent="1" source="YER5WA7dIHrInvIyy_oo-104" target="YER5WA7dIHrInvIyy_oo-69">
          <mxGeometry relative="1" as="geometry" />
        </mxCell>
        <mxCell id="YER5WA7dIHrInvIyy_oo-104" value="StateMachine" style="swimlane;fontStyle=1;align=center;verticalAlign=top;childLayout=stackLayout;horizontal=1;startSize=26;horizontalStack=0;resizeParent=1;resizeParentMax=0;resizeLast=0;collapsible=1;marginBottom=0;whiteSpace=wrap;html=1;" vertex="1" parent="1">
          <mxGeometry x="-70.06" y="-380" width="160" height="34" as="geometry" />
        </mxCell>
        <mxCell id="YER5WA7dIHrInvIyy_oo-105" value="" style="line;strokeWidth=1;fillColor=none;align=left;verticalAlign=middle;spacingTop=-1;spacingLeft=3;spacingRight=3;rotatable=0;labelPosition=right;points=[];portConstraint=eastwest;strokeColor=inherit;" vertex="1" parent="YER5WA7dIHrInvIyy_oo-104">
          <mxGeometry y="26" width="160" height="8" as="geometry" />
        </mxCell>
        <mxCell id="YER5WA7dIHrInvIyy_oo-106" value="Singleton" style="swimlane;fontStyle=1;align=center;verticalAlign=top;childLayout=stackLayout;horizontal=1;startSize=26;horizontalStack=0;resizeParent=1;resizeParentMax=0;resizeLast=0;collapsible=1;marginBottom=0;whiteSpace=wrap;html=1;" vertex="1" parent="1">
          <mxGeometry x="-530" y="-640" width="160" height="34" as="geometry" />
        </mxCell>
        <mxCell id="YER5WA7dIHrInvIyy_oo-107" value="" style="line;strokeWidth=1;fillColor=none;align=left;verticalAlign=middle;spacingTop=-1;spacingLeft=3;spacingRight=3;rotatable=0;labelPosition=right;points=[];portConstraint=eastwest;strokeColor=inherit;" vertex="1" parent="YER5WA7dIHrInvIyy_oo-106">
          <mxGeometry y="26" width="160" height="8" as="geometry" />
        </mxCell>
        <mxCell id="YER5WA7dIHrInvIyy_oo-149" style="edgeStyle=orthogonalEdgeStyle;rounded=0;orthogonalLoop=1;jettySize=auto;html=1;entryX=0.5;entryY=1;entryDx=0;entryDy=0;endArrow=none;endFill=0;" edge="1" parent="1" source="YER5WA7dIHrInvIyy_oo-108" target="YER5WA7dIHrInvIyy_oo-115">
          <mxGeometry relative="1" as="geometry">
            <Array as="points">
              <mxPoint x="10" y="-560" />
              <mxPoint x="70" y="-560" />
            </Array>
          </mxGeometry>
        </mxCell>
        <mxCell id="YER5WA7dIHrInvIyy_oo-155" style="edgeStyle=orthogonalEdgeStyle;rounded=0;orthogonalLoop=1;jettySize=auto;html=1;entryX=0.5;entryY=1;entryDx=0;entryDy=0;endArrow=block;endFill=0;" edge="1" parent="1" source="YER5WA7dIHrInvIyy_oo-108" target="YER5WA7dIHrInvIyy_oo-106">
          <mxGeometry relative="1" as="geometry">
            <Array as="points">
              <mxPoint x="-20" y="-510" />
              <mxPoint x="-450" y="-510" />
            </Array>
          </mxGeometry>
        </mxCell>
        <mxCell id="YER5WA7dIHrInvIyy_oo-108" value="StateManager" style="swimlane;fontStyle=1;align=center;verticalAlign=top;childLayout=stackLayout;horizontal=1;startSize=26;horizontalStack=0;resizeParent=1;resizeParentMax=0;resizeLast=0;collapsible=1;marginBottom=0;whiteSpace=wrap;html=1;" vertex="1" parent="1">
          <mxGeometry x="-70.06" y="-460" width="160" height="34" as="geometry" />
        </mxCell>
        <mxCell id="YER5WA7dIHrInvIyy_oo-109" value="" style="line;strokeWidth=1;fillColor=none;align=left;verticalAlign=middle;spacingTop=-1;spacingLeft=3;spacingRight=3;rotatable=0;labelPosition=right;points=[];portConstraint=eastwest;strokeColor=inherit;" vertex="1" parent="YER5WA7dIHrInvIyy_oo-108">
          <mxGeometry y="26" width="160" height="8" as="geometry" />
        </mxCell>
        <mxCell id="YER5WA7dIHrInvIyy_oo-147" style="edgeStyle=orthogonalEdgeStyle;rounded=0;orthogonalLoop=1;jettySize=auto;html=1;entryX=0.5;entryY=1;entryDx=0;entryDy=0;endArrow=none;endFill=0;" edge="1" parent="1" source="YER5WA7dIHrInvIyy_oo-113" target="YER5WA7dIHrInvIyy_oo-115">
          <mxGeometry relative="1" as="geometry">
            <Array as="points">
              <mxPoint x="-270" y="-560" />
              <mxPoint x="70" y="-560" />
            </Array>
          </mxGeometry>
        </mxCell>
        <mxCell id="YER5WA7dIHrInvIyy_oo-153" style="edgeStyle=orthogonalEdgeStyle;rounded=0;orthogonalLoop=1;jettySize=auto;html=1;entryX=0.5;entryY=1;entryDx=0;entryDy=0;endArrow=block;endFill=0;" edge="1" parent="1" source="YER5WA7dIHrInvIyy_oo-113" target="YER5WA7dIHrInvIyy_oo-106">
          <mxGeometry relative="1" as="geometry">
            <Array as="points">
              <mxPoint x="-310" y="-510" />
              <mxPoint x="-450" y="-510" />
            </Array>
          </mxGeometry>
        </mxCell>
        <mxCell id="YER5WA7dIHrInvIyy_oo-113" value="DataManager" style="swimlane;fontStyle=1;align=center;verticalAlign=top;childLayout=stackLayout;horizontal=1;startSize=26;horizontalStack=0;resizeParent=1;resizeParentMax=0;resizeLast=0;collapsible=1;marginBottom=0;whiteSpace=wrap;html=1;" vertex="1" parent="1">
          <mxGeometry x="-350.06" y="-460" width="160" height="34" as="geometry" />
        </mxCell>
        <mxCell id="YER5WA7dIHrInvIyy_oo-114" value="" style="line;strokeWidth=1;fillColor=none;align=left;verticalAlign=middle;spacingTop=-1;spacingLeft=3;spacingRight=3;rotatable=0;labelPosition=right;points=[];portConstraint=eastwest;strokeColor=inherit;" vertex="1" parent="YER5WA7dIHrInvIyy_oo-113">
          <mxGeometry y="26" width="160" height="8" as="geometry" />
        </mxCell>
        <mxCell id="YER5WA7dIHrInvIyy_oo-154" style="edgeStyle=orthogonalEdgeStyle;rounded=0;orthogonalLoop=1;jettySize=auto;html=1;entryX=1;entryY=0.5;entryDx=0;entryDy=0;endArrow=block;endFill=0;" edge="1" parent="1" source="YER5WA7dIHrInvIyy_oo-115" target="YER5WA7dIHrInvIyy_oo-106">
          <mxGeometry relative="1" as="geometry">
            <Array as="points">
              <mxPoint x="-190" y="-623" />
              <mxPoint x="-190" y="-623" />
            </Array>
          </mxGeometry>
        </mxCell>
        <mxCell id="YER5WA7dIHrInvIyy_oo-115" value="GameManager" style="swimlane;fontStyle=1;align=center;verticalAlign=top;childLayout=stackLayout;horizontal=1;startSize=26;horizontalStack=0;resizeParent=1;resizeParentMax=0;resizeLast=0;collapsible=1;marginBottom=0;whiteSpace=wrap;html=1;" vertex="1" parent="1">
          <mxGeometry x="-10" y="-630" width="160" height="34" as="geometry" />
        </mxCell>
        <mxCell id="YER5WA7dIHrInvIyy_oo-116" value="" style="line;strokeWidth=1;fillColor=none;align=left;verticalAlign=middle;spacingTop=-1;spacingLeft=3;spacingRight=3;rotatable=0;labelPosition=right;points=[];portConstraint=eastwest;strokeColor=inherit;" vertex="1" parent="YER5WA7dIHrInvIyy_oo-115">
          <mxGeometry y="26" width="160" height="8" as="geometry" />
        </mxCell>
        <mxCell id="YER5WA7dIHrInvIyy_oo-122" style="edgeStyle=orthogonalEdgeStyle;rounded=0;orthogonalLoop=1;jettySize=auto;html=1;entryX=0.5;entryY=1;entryDx=0;entryDy=0;" edge="1" parent="1" source="YER5WA7dIHrInvIyy_oo-120" target="YER5WA7dIHrInvIyy_oo-113">
          <mxGeometry relative="1" as="geometry">
            <mxPoint x="-370.0011764705883" y="-380.0000000000002" as="sourcePoint" />
          </mxGeometry>
        </mxCell>
        <mxCell id="YER5WA7dIHrInvIyy_oo-120" value="Score" style="swimlane;fontStyle=1;align=center;verticalAlign=top;childLayout=stackLayout;horizontal=1;startSize=26;horizontalStack=0;resizeParent=1;resizeParentMax=0;resizeLast=0;collapsible=1;marginBottom=0;whiteSpace=wrap;html=1;" vertex="1" parent="1">
          <mxGeometry x="-493" y="-380" width="160" height="34" as="geometry" />
        </mxCell>
        <mxCell id="YER5WA7dIHrInvIyy_oo-121" value="" style="line;strokeWidth=1;fillColor=none;align=left;verticalAlign=middle;spacingTop=-1;spacingLeft=3;spacingRight=3;rotatable=0;labelPosition=right;points=[];portConstraint=eastwest;strokeColor=inherit;" vertex="1" parent="YER5WA7dIHrInvIyy_oo-120">
          <mxGeometry y="26" width="160" height="8" as="geometry" />
        </mxCell>
        <mxCell id="YER5WA7dIHrInvIyy_oo-131" style="edgeStyle=orthogonalEdgeStyle;rounded=0;orthogonalLoop=1;jettySize=auto;html=1;entryX=0.5;entryY=0;entryDx=0;entryDy=0;" edge="1" parent="1" source="YER5WA7dIHrInvIyy_oo-124" target="YER5WA7dIHrInvIyy_oo-6">
          <mxGeometry relative="1" as="geometry" />
        </mxCell>
        <mxCell id="YER5WA7dIHrInvIyy_oo-124" value="Event" style="swimlane;fontStyle=1;align=center;verticalAlign=top;childLayout=stackLayout;horizontal=1;startSize=26;horizontalStack=0;resizeParent=1;resizeParentMax=0;resizeLast=0;collapsible=1;marginBottom=0;whiteSpace=wrap;html=1;" vertex="1" parent="1">
          <mxGeometry x="-120" y="-220" width="160" height="34" as="geometry" />
        </mxCell>
        <mxCell id="YER5WA7dIHrInvIyy_oo-125" value="" style="line;strokeWidth=1;fillColor=none;align=left;verticalAlign=middle;spacingTop=-1;spacingLeft=3;spacingRight=3;rotatable=0;labelPosition=right;points=[];portConstraint=eastwest;strokeColor=inherit;" vertex="1" parent="YER5WA7dIHrInvIyy_oo-124">
          <mxGeometry y="26" width="160" height="8" as="geometry" />
        </mxCell>
        <mxCell id="YER5WA7dIHrInvIyy_oo-132" style="edgeStyle=orthogonalEdgeStyle;rounded=0;orthogonalLoop=1;jettySize=auto;html=1;entryX=0.5;entryY=0;entryDx=0;entryDy=0;" edge="1" parent="1" source="YER5WA7dIHrInvIyy_oo-126" target="YER5WA7dIHrInvIyy_oo-6">
          <mxGeometry relative="1" as="geometry" />
        </mxCell>
        <mxCell id="YER5WA7dIHrInvIyy_oo-126" value="AIAgent" style="swimlane;fontStyle=1;align=center;verticalAlign=top;childLayout=stackLayout;horizontal=1;startSize=26;horizontalStack=0;resizeParent=1;resizeParentMax=0;resizeLast=0;collapsible=1;marginBottom=0;whiteSpace=wrap;html=1;" vertex="1" parent="1">
          <mxGeometry x="140" y="-220" width="160" height="34" as="geometry" />
        </mxCell>
        <mxCell id="YER5WA7dIHrInvIyy_oo-127" value="" style="line;strokeWidth=1;fillColor=none;align=left;verticalAlign=middle;spacingTop=-1;spacingLeft=3;spacingRight=3;rotatable=0;labelPosition=right;points=[];portConstraint=eastwest;strokeColor=inherit;" vertex="1" parent="YER5WA7dIHrInvIyy_oo-126">
          <mxGeometry y="26" width="160" height="8" as="geometry" />
        </mxCell>
        <mxCell id="YER5WA7dIHrInvIyy_oo-128" value="&lt;font style=&quot;font-size: 16px;&quot;&gt;Managers layer&lt;/font&gt;" style="shape=umlFrame;whiteSpace=wrap;html=1;pointerEvents=0;width=170;height=40;" vertex="1" parent="1">
          <mxGeometry x="-690" y="-740" width="1280" height="580" as="geometry" />
        </mxCell>
        <mxCell id="YER5WA7dIHrInvIyy_oo-136" style="edgeStyle=orthogonalEdgeStyle;rounded=0;orthogonalLoop=1;jettySize=auto;html=1;entryX=0.5;entryY=1;entryDx=0;entryDy=0;" edge="1" parent="1" source="YER5WA7dIHrInvIyy_oo-134" target="YER5WA7dIHrInvIyy_oo-113">
          <mxGeometry relative="1" as="geometry" />
        </mxCell>
        <mxCell id="YER5WA7dIHrInvIyy_oo-134" value="Money" style="swimlane;fontStyle=1;align=center;verticalAlign=top;childLayout=stackLayout;horizontal=1;startSize=26;horizontalStack=0;resizeParent=1;resizeParentMax=0;resizeLast=0;collapsible=1;marginBottom=0;whiteSpace=wrap;html=1;" vertex="1" parent="1">
          <mxGeometry x="-300" y="-380" width="160" height="34" as="geometry" />
        </mxCell>
        <mxCell id="YER5WA7dIHrInvIyy_oo-135" value="" style="line;strokeWidth=1;fillColor=none;align=left;verticalAlign=middle;spacingTop=-1;spacingLeft=3;spacingRight=3;rotatable=0;labelPosition=right;points=[];portConstraint=eastwest;strokeColor=inherit;" vertex="1" parent="YER5WA7dIHrInvIyy_oo-134">
          <mxGeometry y="26" width="160" height="8" as="geometry" />
        </mxCell>
        <mxCell id="YER5WA7dIHrInvIyy_oo-142" style="edgeStyle=orthogonalEdgeStyle;rounded=0;orthogonalLoop=1;jettySize=auto;html=1;exitX=0.5;exitY=1;exitDx=0;exitDy=0;entryX=0.5;entryY=0;entryDx=0;entryDy=0;" edge="1" parent="1" source="YER5WA7dIHrInvIyy_oo-138" target="YER5WA7dIHrInvIyy_oo-69">
          <mxGeometry relative="1" as="geometry">
            <mxPoint x="770" y="-92.54904354319876" as="targetPoint" />
            <Array as="points">
              <mxPoint x="220" y="-410" />
              <mxPoint x="830" y="-410" />
            </Array>
          </mxGeometry>
        </mxCell>
        <mxCell id="YER5WA7dIHrInvIyy_oo-151" style="edgeStyle=orthogonalEdgeStyle;rounded=0;orthogonalLoop=1;jettySize=auto;html=1;entryX=0.5;entryY=1;entryDx=0;entryDy=0;endArrow=none;endFill=0;" edge="1" parent="1" source="YER5WA7dIHrInvIyy_oo-138" target="YER5WA7dIHrInvIyy_oo-115">
          <mxGeometry relative="1" as="geometry">
            <Array as="points">
              <mxPoint x="220" y="-560" />
              <mxPoint x="70" y="-560" />
            </Array>
          </mxGeometry>
        </mxCell>
        <mxCell id="YER5WA7dIHrInvIyy_oo-157" style="edgeStyle=orthogonalEdgeStyle;rounded=0;orthogonalLoop=1;jettySize=auto;html=1;endArrow=block;endFill=0;" edge="1" parent="1" source="YER5WA7dIHrInvIyy_oo-138">
          <mxGeometry relative="1" as="geometry">
            <mxPoint x="-450" y="-606" as="targetPoint" />
            <Array as="points">
              <mxPoint x="190" y="-510" />
              <mxPoint x="-450" y="-510" />
            </Array>
          </mxGeometry>
        </mxCell>
        <mxCell id="YER5WA7dIHrInvIyy_oo-138" value="SceneManager" style="swimlane;fontStyle=1;align=center;verticalAlign=top;childLayout=stackLayout;horizontal=1;startSize=26;horizontalStack=0;resizeParent=1;resizeParentMax=0;resizeLast=0;collapsible=1;marginBottom=0;whiteSpace=wrap;html=1;" vertex="1" parent="1">
          <mxGeometry x="139.94" y="-460" width="160" height="34" as="geometry" />
        </mxCell>
        <mxCell id="YER5WA7dIHrInvIyy_oo-139" value="" style="line;strokeWidth=1;fillColor=none;align=left;verticalAlign=middle;spacingTop=-1;spacingLeft=3;spacingRight=3;rotatable=0;labelPosition=right;points=[];portConstraint=eastwest;strokeColor=inherit;" vertex="1" parent="YER5WA7dIHrInvIyy_oo-138">
          <mxGeometry y="26" width="160" height="8" as="geometry" />
        </mxCell>
        <mxCell id="YER5WA7dIHrInvIyy_oo-143" style="edgeStyle=orthogonalEdgeStyle;rounded=0;orthogonalLoop=1;jettySize=auto;html=1;entryX=0.5;entryY=0;entryDx=0;entryDy=0;" edge="1" parent="1" source="YER5WA7dIHrInvIyy_oo-140" target="YER5WA7dIHrInvIyy_oo-69">
          <mxGeometry relative="1" as="geometry">
            <Array as="points">
              <mxPoint x="430" y="-410" />
              <mxPoint x="830" y="-410" />
            </Array>
          </mxGeometry>
        </mxCell>
        <mxCell id="YER5WA7dIHrInvIyy_oo-158" style="edgeStyle=orthogonalEdgeStyle;rounded=0;orthogonalLoop=1;jettySize=auto;html=1;entryX=0.5;entryY=1;entryDx=0;entryDy=0;endArrow=block;endFill=0;" edge="1" parent="1" source="YER5WA7dIHrInvIyy_oo-140" target="YER5WA7dIHrInvIyy_oo-106">
          <mxGeometry relative="1" as="geometry">
            <Array as="points">
              <mxPoint x="390" y="-510" />
              <mxPoint x="-450" y="-510" />
            </Array>
          </mxGeometry>
        </mxCell>
        <mxCell id="YER5WA7dIHrInvIyy_oo-140" value="SoundManager" style="swimlane;fontStyle=1;align=center;verticalAlign=top;childLayout=stackLayout;horizontal=1;startSize=26;horizontalStack=0;resizeParent=1;resizeParentMax=0;resizeLast=0;collapsible=1;marginBottom=0;whiteSpace=wrap;html=1;" vertex="1" parent="1">
          <mxGeometry x="350" y="-460" width="160" height="34" as="geometry" />
        </mxCell>
        <mxCell id="YER5WA7dIHrInvIyy_oo-141" value="" style="line;strokeWidth=1;fillColor=none;align=left;verticalAlign=middle;spacingTop=-1;spacingLeft=3;spacingRight=3;rotatable=0;labelPosition=right;points=[];portConstraint=eastwest;strokeColor=inherit;" vertex="1" parent="YER5WA7dIHrInvIyy_oo-140">
          <mxGeometry y="26" width="160" height="8" as="geometry" />
        </mxCell>
        <mxCell id="YER5WA7dIHrInvIyy_oo-152" style="edgeStyle=orthogonalEdgeStyle;rounded=0;orthogonalLoop=1;jettySize=auto;html=1;entryX=0.5;entryY=0.5;entryDx=0;entryDy=0;entryPerimeter=0;endArrow=none;endFill=0;" edge="1" parent="1" source="YER5WA7dIHrInvIyy_oo-140" target="YER5WA7dIHrInvIyy_oo-116">
          <mxGeometry relative="1" as="geometry">
            <Array as="points">
              <mxPoint x="430" y="-560" />
              <mxPoint x="70" y="-560" />
            </Array>
          </mxGeometry>
        </mxCell>
        <mxCell id="YER5WA7dIHrInvIyy_oo-160" value="TaxiApp" style="swimlane;fontStyle=1;align=center;verticalAlign=top;childLayout=stackLayout;horizontal=1;startSize=26;horizontalStack=0;resizeParent=1;resizeParentMax=0;resizeLast=0;collapsible=1;marginBottom=0;whiteSpace=wrap;html=1;" vertex="1" parent="1">
          <mxGeometry x="413" y="50" width="160" height="34" as="geometry" />
        </mxCell>
        <mxCell id="YER5WA7dIHrInvIyy_oo-161" value="" style="line;strokeWidth=1;fillColor=none;align=left;verticalAlign=middle;spacingTop=-1;spacingLeft=3;spacingRight=3;rotatable=0;labelPosition=right;points=[];portConstraint=eastwest;strokeColor=inherit;" vertex="1" parent="YER5WA7dIHrInvIyy_oo-160">
          <mxGeometry y="26" width="160" height="8" as="geometry" />
        </mxCell>
        <mxCell id="YER5WA7dIHrInvIyy_oo-165" value="&lt;p style=&quot;margin:0px;margin-top:4px;text-align:center;&quot;&gt;&lt;i&gt;&amp;lt;&amp;lt;Interface&amp;gt;&amp;gt;&lt;/i&gt;&lt;br&gt;&lt;b&gt;ITriggerer&lt;/b&gt;&lt;/p&gt;&lt;hr size=&quot;1&quot; style=&quot;border-style:solid;&quot;&gt;&lt;p style=&quot;margin:0px;margin-left:4px;&quot;&gt;+ Trigger(): bool&lt;br&gt;&lt;/p&gt;" style="verticalAlign=top;align=left;overflow=fill;html=1;whiteSpace=wrap;" vertex="1" parent="1">
          <mxGeometry x="430" y="430" width="180" height="70" as="geometry" />
        </mxCell>
        <mxCell id="YER5WA7dIHrInvIyy_oo-168" value="&amp;lt;&amp;lt;use&amp;gt;&amp;gt;" style="text;html=1;align=center;verticalAlign=middle;resizable=0;points=[];autosize=1;strokeColor=none;fillColor=none;" vertex="1" parent="1">
          <mxGeometry x="513" y="364" width="70" height="30" as="geometry" />
        </mxCell>
      </root>
    </mxGraphModel>
  </diagram>
</mxfile>
